<?xml version="1.0" standalone="no"?><!DOCTYPE svg PUBLIC "-//W3C//DTD SVG 1.1//EN" "http://www.w3.org/Graphics/SVG/1.1/DTD/svg11.dtd"><svg t="1751039022392" class="icon" viewBox="0 0 1024 1024" version="1.1" xmlns="http://www.w3.org/2000/svg" p-id="9307" xmlns:xlink="http://www.w3.org/1999/xlink" width="200" height="200"><path d="M467.993995 51.186131c111.000781 0 201.819602 92.135036 201.819602 204.647027 0 112.609488-90.818821 204.744524-201.819602 204.744524-111.000781 0-201.819602-92.135036-201.819602-204.744524 0-112.560739 90.818821-204.647027 201.819602-204.647027z m10.09098 460.333938c136.398852-5.21611 242.134774-115.826902 242.134774-255.686911C720.219749 112.609488 609.218968 0 467.993995 0 326.720274 0 215.768241 112.609488 215.768241 255.833158c0 98.033628 51.917361 181.686391 129.964024 224.731489C158.781015 538.819339 24.039619 717.14207 24.039619 926.225228c0 35.781543 5.069864 66.493222 10.09098 97.2049h443.954376v-51.186131h-403.639204v-81.89781c20.230709-209.76564 191.728622-378.631123 403.639204-378.631123v-0.194995z m242.622261 356.596713a109.684566 109.684566 0 0 0 110.3183-110.172054 110.903284 110.903284 0 0 0-110.3183-110.172053 109.684566 109.684566 0 0 0-110.269551 110.172053 110.903284 110.903284 0 0 0 110.269551 110.172054z m0-41.826382c-37.049009 0-67.565693-30.467935-67.565693-67.370698 0-36.854014 30.565433-67.321949 67.565693-67.321949 37.049009 0 67.565693 30.467935 67.565693 67.321949 0 36.902763-30.565433 67.370698-67.565693 67.370698z m-144.29614 109.977059c18.622002 14.96585 39.291449 27.153024 61.423357 36.220281a124.699165 124.699165 0 0 1 82.531542-32.759124c31.589155 0 59.717153 12.040928 82.531543 32.759124 22.863139-8.628519 43.873827-20.669447 61.423357-36.171532-6.971064-29.297966-1.706204-60.399635 12.33342-87.942648 15.794578-25.836809 40.412669-46.555005 70.198123-55.183524 1.803702-12.040928 3.558655-24.130605 3.558655-36.171533 0-12.089677-1.754953-24.179353-3.509906-36.220281-29.834202-8.628519-54.452294-29.346715-70.198123-55.183524-15.843326-25.836809-19.353232-58.595933-12.33342-87.942648a249.349581 249.349581 0 0 0-61.423357-36.171533c-22.911887 20.669447-50.991136 32.759124-82.580292 32.759124a124.50417 124.50417 0 0 1-82.531542-32.759124 197.919707 197.919707 0 0 0-61.423357 36.171533c6.971064 29.346715 1.706204 60.350886-12.333421 87.942648-15.794578 25.836809-40.36392 46.555005-70.198122 55.183524a250.373304 250.373304 0 0 0-3.558655 36.171532c0 12.040928 1.754953 24.130605 3.509906 36.220282 29.882951 8.628519 54.452294 29.297966 70.198123 55.183524 14.137122 27.543013 19.353232 58.644682 12.382169 87.942648z m52.989832 86.675182a259.586807 259.586807 0 0 1-90.916318-53.136079c-3.899896-3.851147-5.849844-9.554744-3.899896-13.308394a97.59489 97.59489 0 0 0-9.652242-83.652763c-15.453337-26.568039-38.706465-43.678832-67.760687-49.382429-5.801095-1.85245-9.652242-5.703597-9.652242-11.358446a248.813345 248.813345 0 0 1-5.801095-53.233576c0-17.062044 1.949948-34.172836 5.801095-53.136079a19.548227 19.548227 0 0 1 9.70099-11.455944c29.005474-7.556048 54.159801-24.66684 67.711939-49.382429 15.502085-26.568039 17.403285-55.086027 9.652242-83.604014-1.949948-5.703597 0-11.407195 3.899896-13.308394 27.055526-22.765641 58.010948-39.876433 90.916318-53.136079 5.849844-1.949948 9.700991 0 13.552138 3.75365 21.30318 20.961939 48.358707 34.221585 77.412929 34.221584 29.054223 0 58.010948-11.407195 77.41293-34.221584 3.899896-3.802398 9.652242-5.703597 13.552137-3.802399 32.856621 11.407195 63.860792 28.517987 90.916319 53.184828 3.899896 3.851147 5.849844 9.505996 3.899896 13.308394a97.59489 97.59489 0 0 0 9.652241 83.604014c15.453337 26.568039 38.706465 43.678832 67.760688 49.382429 5.801095 1.949948 9.652242 5.703597 9.652242 11.407195 3.899896 17.062044 5.801095 36.074035 5.801095 53.184828s-1.949948 34.221585-5.801095 53.233576a19.548227 19.548227 0 0 1-9.700991 11.358446c-29.005474 7.604797-54.159801 24.715589-67.711939 49.382429-15.502085 26.616788-17.403285 55.086027-9.652241 83.652763 1.949948 5.703597 0 11.407195-3.899896 13.259645-27.055526 22.81439-58.010948 39.925182-90.916319 53.233576-5.849844 1.85245-9.700991 0-13.552137-3.851147-21.30318-20.864442-48.358707-34.124087-77.41293-34.124087-29.054223 0-58.010948 11.358446-77.412929 34.124087a14.917101 14.917101 0 0 1-9.652242 3.851147h-3.899896z" fill="#348dff" p-id="9308"></path></svg>